<mxfile modified="2022-04-19T16:10:54.908Z" host="drawio-plugin" agent="5.0 (X11; Linux x86_64) AppleWebKit/537.36 (KHTML, like Gecko) Chrome/97.0.4692.45 Safari/537.36" etag="Sz-2CGHWVrWOhXQBZKVL" version="15.5.4" type="embed" pages="2"><diagram id="5fv781UrCtvl-2jIERiF" name="to be - central ledger"><mxGraphModel dx="1549" dy="548" grid="1" gridSize="10" guides="1" tooltips="1" connect="1" arrows="1" fold="1" page="1" pageScale="1" pageWidth="850" pageHeight="1100" math="0" shadow="0"><root><mxCell id="0"/><mxCell id="1" parent="0"/><mxCell id="oDrJPgg-OVAa7Pc_2WsO-1" value="" style="rounded=0;whiteSpace=wrap;html=1;fillColor=#F5C425;strokeColor=#666666;fontColor=#333333;opacity=60;" parent="1" vertex="1"><mxGeometry x="470" y="200" width="210" height="120" as="geometry"/></mxCell><mxCell id="oDrJPgg-OVAa7Pc_2WsO-2" value="" style="rounded=0;whiteSpace=wrap;html=1;fillColor=#f5f5f5;strokeColor=#666666;fontColor=#333333;opacity=60;labelBackgroundColor=none;" parent="1" vertex="1"><mxGeometry x="177.5" y="200" width="265" height="229" as="geometry"/></mxCell><mxCell id="oDrJPgg-OVAa7Pc_2WsO-3" style="edgeStyle=orthogonalEdgeStyle;rounded=0;orthogonalLoop=1;jettySize=auto;html=1;exitX=0.5;exitY=1;exitDx=0;exitDy=0;" parent="1" edge="1"><mxGeometry relative="1" as="geometry"><mxPoint x="378.9999999999998" y="348" as="sourcePoint"/><mxPoint x="378.9999999999998" y="348" as="targetPoint"/></mxGeometry></mxCell><mxCell id="oDrJPgg-OVAa7Pc_2WsO-4" value="Central Services" style="text;html=1;strokeColor=none;fillColor=none;align=center;verticalAlign=middle;whiteSpace=wrap;rounded=0;opacity=60;fontSize=15;fontStyle=1;labelBackgroundColor=default;" parent="1" vertex="1"><mxGeometry x="245" y="202" width="130" height="20" as="geometry"/></mxCell><mxCell id="oDrJPgg-OVAa7Pc_2WsO-5" value="Databases -&amp;nbsp;&lt;span style=&quot;font-size: 12px&quot;&gt;&lt;font style=&quot;font-size: 12px&quot;&gt;SQL &amp;amp; PostgreSQL&lt;/font&gt;&lt;/span&gt;" style="text;html=1;strokeColor=none;fillColor=none;align=center;verticalAlign=middle;whiteSpace=wrap;rounded=0;opacity=60;fontSize=12;fontStyle=1;labelBackgroundColor=none;" parent="1" vertex="1"><mxGeometry x="495" y="209" width="160" height="20" as="geometry"/></mxCell><mxCell id="oDrJPgg-OVAa7Pc_2WsO-6" style="edgeStyle=orthogonalEdgeStyle;rounded=1;orthogonalLoop=1;jettySize=auto;html=1;exitX=1;exitY=0.5;exitDx=0;exitDy=0;entryX=0;entryY=0.5;entryDx=0;entryDy=0;fontSize=12;" parent="1" source="oDrJPgg-OVAa7Pc_2WsO-7" target="oDrJPgg-OVAa7Pc_2WsO-10" edge="1"><mxGeometry relative="1" as="geometry"><mxPoint x="190" y="275.5" as="targetPoint"/></mxGeometry></mxCell><mxCell id="oDrJPgg-OVAa7Pc_2WsO-7" value="Mojaloop Adapter" style="rounded=0;whiteSpace=wrap;html=1;fontSize=12;opacity=60;fontStyle=0" parent="1" vertex="1"><mxGeometry x="30" y="255.5" width="120" height="40" as="geometry"/></mxCell><mxCell id="oDrJPgg-OVAa7Pc_2WsO-9" value="Participant &lt;br&gt;Data" style="edgeStyle=orthogonalEdgeStyle;rounded=0;orthogonalLoop=1;jettySize=auto;html=1;exitX=0.5;exitY=1;exitDx=0;exitDy=0;entryX=0;entryY=0.5;entryDx=0;entryDy=0;" parent="1" source="oDrJPgg-OVAa7Pc_2WsO-10" target="oDrJPgg-OVAa7Pc_2WsO-12" edge="1"><mxGeometry x="0.7523" relative="1" as="geometry"><mxPoint as="offset"/></mxGeometry></mxCell><mxCell id="60_vhmkmeH_u4i3II14A-4" value="Accounts &amp;amp; &lt;br&gt;Transfers" style="rounded=0;orthogonalLoop=1;jettySize=auto;html=1;exitX=1;exitY=0.5;exitDx=0;exitDy=0;entryX=0;entryY=0.5;entryDx=0;entryDy=0;fontSize=12;startArrow=none;startFill=0;endArrow=classic;endFill=1;edgeStyle=orthogonalEdgeStyle;" parent="1" source="oDrJPgg-OVAa7Pc_2WsO-10" target="hW9e1Iwi09mclev_8Fzw-1" edge="1"><mxGeometry x="0.3181" relative="1" as="geometry"><mxPoint as="offset"/></mxGeometry></mxCell><mxCell id="oDrJPgg-OVAa7Pc_2WsO-10" value="&lt;font color=&quot;#000000&quot;&gt;&lt;span&gt;Central Ledger&lt;/span&gt;&lt;br&gt;&lt;/font&gt;" style="rounded=0;whiteSpace=wrap;html=1;fillColor=#d5e8d4;strokeColor=#82b366;fontStyle=0" parent="1" vertex="1"><mxGeometry x="260" y="246.5" width="120" height="58" as="geometry"/></mxCell><mxCell id="oDrJPgg-OVAa7Pc_2WsO-12" value="" style="rounded=0;whiteSpace=wrap;html=1;fillColor=#F19C99;strokeColor=#666666;fontColor=#333333;opacity=60;" parent="1" vertex="1"><mxGeometry x="470" y="450" width="120" height="69" as="geometry"/></mxCell><mxCell id="oDrJPgg-OVAa7Pc_2WsO-13" value="Redis Cluster" style="text;html=1;strokeColor=none;fillColor=none;align=center;verticalAlign=middle;whiteSpace=wrap;rounded=0;opacity=60;fontSize=12;fontStyle=1" parent="1" vertex="1"><mxGeometry x="480" y="450" width="110" height="20" as="geometry"/></mxCell><mxCell id="oDrJPgg-OVAa7Pc_2WsO-14" value="&lt;font color=&quot;#000000&quot;&gt;&lt;br&gt;&lt;/font&gt;" style="whiteSpace=wrap;html=1;shape=mxgraph.basic.isocube;isoAngle=15;fillColor=#FC003A;strokeColor=#800000;fontColor=#ffffff;" parent="1" vertex="1"><mxGeometry x="510" y="467" width="44.38" height="48" as="geometry"/></mxCell><mxCell id="oDrJPgg-OVAa7Pc_2WsO-20" value="&lt;font color=&quot;#000000&quot;&gt;&lt;br&gt;&lt;/font&gt;" style="shape=cylinder;whiteSpace=wrap;html=1;boundedLbl=1;backgroundOutline=1;fillColor=#ffcd28;strokeColor=#d79b00;gradientColor=#ffa500;" parent="1" vertex="1"><mxGeometry x="480" y="251" width="80" height="49.5" as="geometry"/></mxCell><mxCell id="_xyKBKS7H1u9OfSc2gpH-1" value="&lt;font color=&quot;#000000&quot;&gt;&lt;br&gt;&lt;/font&gt;" style="shape=cylinder;whiteSpace=wrap;html=1;boundedLbl=1;backgroundOutline=1;fillColor=#ffcd28;strokeColor=#d79b00;gradientColor=#ffa500;" parent="1" vertex="1"><mxGeometry x="490" y="261" width="80" height="49.5" as="geometry"/></mxCell><mxCell id="_xyKBKS7H1u9OfSc2gpH-2" value="&lt;font color=&quot;#000000&quot;&gt;&lt;br&gt;&lt;/font&gt;" style="shape=cylinder;whiteSpace=wrap;html=1;boundedLbl=1;backgroundOutline=1;fillColor=#ffcd28;strokeColor=#d79b00;gradientColor=#ffa500;" parent="1" vertex="1"><mxGeometry x="580" y="251" width="80" height="49.5" as="geometry"/></mxCell><mxCell id="_xyKBKS7H1u9OfSc2gpH-3" value="&lt;font color=&quot;#000000&quot;&gt;&lt;br&gt;&lt;/font&gt;" style="shape=cylinder;whiteSpace=wrap;html=1;boundedLbl=1;backgroundOutline=1;fillColor=#ffcd28;strokeColor=#d79b00;gradientColor=#ffa500;" parent="1" vertex="1"><mxGeometry x="590" y="261" width="80" height="49.5" as="geometry"/></mxCell><mxCell id="hW9e1Iwi09mclev_8Fzw-1" value="" style="rounded=0;whiteSpace=wrap;html=1;fillColor=#99FF99;strokeColor=#666666;fontColor=#333333;opacity=60;" parent="1" vertex="1"><mxGeometry x="470" y="340" width="200" height="90" as="geometry"/></mxCell><mxCell id="eVDEepTebOYD5LniLWVk-1" value="TigerBeetle Cluster" style="text;html=1;strokeColor=none;fillColor=none;align=center;verticalAlign=middle;whiteSpace=wrap;rounded=0;opacity=60;fontSize=12;fontStyle=1" parent="1" vertex="1"><mxGeometry x="480" y="340" width="190" height="20" as="geometry"/></mxCell><mxCell id="eVDEepTebOYD5LniLWVk-15" style="rounded=0;orthogonalLoop=1;jettySize=auto;html=1;exitX=0.15;exitY=0.95;exitDx=0;exitDy=0;entryX=1;entryY=0.3;entryDx=0;entryDy=0;fontSize=12;startArrow=none;startFill=0;endArrow=none;endFill=0;exitPerimeter=0;" parent="1" source="eVDEepTebOYD5LniLWVk-2" target="eVDEepTebOYD5LniLWVk-4" edge="1"><mxGeometry relative="1" as="geometry"/></mxCell><mxCell id="eVDEepTebOYD5LniLWVk-16" style="edgeStyle=none;rounded=0;orthogonalLoop=1;jettySize=auto;html=1;exitX=0.85;exitY=0.95;exitDx=0;exitDy=0;exitPerimeter=0;entryX=0;entryY=0.3;entryDx=0;entryDy=0;fontSize=12;startArrow=none;startFill=0;endArrow=none;endFill=0;" parent="1" source="eVDEepTebOYD5LniLWVk-2" target="eVDEepTebOYD5LniLWVk-3" edge="1"><mxGeometry relative="1" as="geometry"/></mxCell><mxCell id="eVDEepTebOYD5LniLWVk-2" value="&lt;font color=&quot;#000000&quot;&gt;&lt;br&gt;&lt;/font&gt;" style="shape=cylinder;whiteSpace=wrap;html=1;boundedLbl=1;backgroundOutline=1;fillColor=#94F794;strokeColor=#559E64;gradientColor=#71D184;" parent="1" vertex="1"><mxGeometry x="550" y="362" width="50" height="28.75" as="geometry"/></mxCell><mxCell id="eVDEepTebOYD5LniLWVk-3" value="&lt;font color=&quot;#000000&quot;&gt;&lt;br&gt;&lt;/font&gt;" style="shape=cylinder;whiteSpace=wrap;html=1;boundedLbl=1;backgroundOutline=1;fillColor=#94F794;strokeColor=#559E64;gradientColor=#71D184;" parent="1" vertex="1"><mxGeometry x="610" y="396.12" width="50" height="28.75" as="geometry"/></mxCell><mxCell id="eVDEepTebOYD5LniLWVk-17" style="edgeStyle=none;rounded=0;orthogonalLoop=1;jettySize=auto;html=1;exitX=1;exitY=0.5;exitDx=0;exitDy=0;fontSize=12;startArrow=none;startFill=0;endArrow=none;endFill=0;" parent="1" source="eVDEepTebOYD5LniLWVk-4" target="eVDEepTebOYD5LniLWVk-3" edge="1"><mxGeometry relative="1" as="geometry"/></mxCell><mxCell id="eVDEepTebOYD5LniLWVk-4" value="&lt;font color=&quot;#000000&quot;&gt;&lt;br&gt;&lt;/font&gt;" style="shape=cylinder;whiteSpace=wrap;html=1;boundedLbl=1;backgroundOutline=1;fillColor=#94F794;strokeColor=#559E64;gradientColor=#71D184;" parent="1" vertex="1"><mxGeometry x="490" y="396.12" width="50" height="28.75" as="geometry"/></mxCell><mxCell id="60_vhmkmeH_u4i3II14A-3" value="All Data" style="endArrow=classic;html=1;rounded=1;fontSize=12;entryX=0;entryY=0.5;entryDx=0;entryDy=0;exitX=1;exitY=0.25;exitDx=0;exitDy=0;" parent="1" source="oDrJPgg-OVAa7Pc_2WsO-10" target="oDrJPgg-OVAa7Pc_2WsO-1" edge="1"><mxGeometry x="-0.111" y="1" width="50" height="50" relative="1" as="geometry"><mxPoint x="380" y="260" as="sourcePoint"/><mxPoint x="430" y="210" as="targetPoint"/><mxPoint as="offset"/></mxGeometry></mxCell></root></mxGraphModel></diagram><diagram id="xXD5DnYFGBBulUnZPJKQ" name="Original"><mxGraphModel dx="920" dy="541" grid="1" gridSize="10" guides="1" tooltips="1" connect="1" arrows="1" fold="1" page="1" pageScale="1" pageWidth="1169" pageHeight="827" math="0" shadow="0"><root><mxCell id="0"/><mxCell id="1" parent="0"/><mxCell id="qoHOIKUOJggppsxTAeiT-66" value="" style="rounded=0;whiteSpace=wrap;html=1;fillColor=#F5C425;strokeColor=#666666;fontColor=#333333;opacity=60;" parent="1" vertex="1"><mxGeometry x="810" y="160" width="275" height="150" as="geometry"/></mxCell><mxCell id="qoHOIKUOJggppsxTAeiT-63" value="" style="rounded=0;whiteSpace=wrap;html=1;fillColor=#f5f5f5;strokeColor=#666666;fontColor=#333333;opacity=60;" parent="1" vertex="1"><mxGeometry x="427.5" y="249" width="265" height="330" as="geometry"/></mxCell><mxCell id="qoHOIKUOJggppsxTAeiT-8" value="&lt;font color=&quot;#000000&quot;&gt;Fluid Core&lt;/font&gt;" style="rounded=0;whiteSpace=wrap;html=1;fillColor=#d5e8d4;strokeColor=#82b366;" parent="1" vertex="1"><mxGeometry x="525" y="360" width="120" height="60" as="geometry"/></mxCell><mxCell id="qoHOIKUOJggppsxTAeiT-10" value="&lt;b&gt;&lt;font color=&quot;#000000&quot;&gt;central-ledger&lt;/font&gt;&lt;/b&gt;" style="shape=cylinder;whiteSpace=wrap;html=1;boundedLbl=1;backgroundOutline=1;fillColor=#ffcd28;strokeColor=#d79b00;gradientColor=#ffa500;" parent="1" vertex="1"><mxGeometry x="830" y="210" width="100" height="80" as="geometry"/></mxCell><mxCell id="qoHOIKUOJggppsxTAeiT-21" style="edgeStyle=orthogonalEdgeStyle;rounded=1;orthogonalLoop=1;jettySize=auto;html=1;exitX=0.75;exitY=0;exitDx=0;exitDy=0;startArrow=classic;startFill=1;entryX=0;entryY=0.75;entryDx=0;entryDy=0;" parent="1" source="55" target="qoHOIKUOJggppsxTAeiT-66" edge="1"><mxGeometry relative="1" as="geometry"><mxPoint x="770" y="290" as="targetPoint"/><Array as="points"><mxPoint x="605" y="360"/><mxPoint x="605" y="273"/><mxPoint x="770" y="273"/></Array></mxGeometry></mxCell><mxCell id="46" value="All Data" style="edgeLabel;html=1;align=center;verticalAlign=middle;resizable=0;points=[];" parent="qoHOIKUOJggppsxTAeiT-21" vertex="1" connectable="0"><mxGeometry x="-0.1323" y="3" relative="1" as="geometry"><mxPoint as="offset"/></mxGeometry></mxCell><mxCell id="qoHOIKUOJggppsxTAeiT-15" value="&lt;font color=&quot;#000000&quot;&gt;Fluid App&lt;br&gt;&lt;/font&gt;" style="rounded=0;whiteSpace=wrap;html=1;fillColor=#d5e8d4;strokeColor=#82b366;" parent="1" vertex="1"><mxGeometry x="510" y="350" width="120" height="60" as="geometry"/></mxCell><mxCell id="qoHOIKUOJggppsxTAeiT-28" style="edgeStyle=orthogonalEdgeStyle;rounded=0;orthogonalLoop=1;jettySize=auto;html=1;exitX=0.5;exitY=1;exitDx=0;exitDy=0;" parent="1" edge="1"><mxGeometry relative="1" as="geometry"><mxPoint x="629" y="410" as="sourcePoint"/><mxPoint x="629" y="410" as="targetPoint"/></mxGeometry></mxCell><mxCell id="qoHOIKUOJggppsxTAeiT-64" value="Central Services" style="text;html=1;strokeColor=none;fillColor=none;align=center;verticalAlign=middle;whiteSpace=wrap;rounded=0;opacity=60;fontSize=14;fontStyle=1" parent="1" vertex="1"><mxGeometry x="500" y="310" width="130" height="20" as="geometry"/></mxCell><mxCell id="qoHOIKUOJggppsxTAeiT-67" value="DB Server" style="text;html=1;strokeColor=none;fillColor=none;align=center;verticalAlign=middle;whiteSpace=wrap;rounded=0;opacity=60;fontSize=14;fontStyle=1" parent="1" vertex="1"><mxGeometry x="847.5" y="170" width="170" height="20" as="geometry"/></mxCell><mxCell id="10" value="" style="edgeStyle=orthogonalEdgeStyle;rounded=0;orthogonalLoop=1;jettySize=auto;html=1;entryX=0;entryY=0.5;entryDx=0;entryDy=0;startArrow=none;" parent="1" source="qoHOIKUOJggppsxTAeiT-68" target="qoHOIKUOJggppsxTAeiT-15" edge="1"><mxGeometry relative="1" as="geometry"/></mxCell><mxCell id="3" value="Mojaloop Adapter" style="rounded=0;whiteSpace=wrap;html=1;fontSize=12;opacity=60;" parent="1" vertex="1"><mxGeometry x="145" y="350" width="120" height="60" as="geometry"/></mxCell><mxCell id="16" value="" style="rounded=0;whiteSpace=wrap;html=1;fillColor=#99FF99;strokeColor=#666666;fontColor=#333333;opacity=60;" parent="1" vertex="1"><mxGeometry x="810" y="320" width="275" height="160" as="geometry"/></mxCell><mxCell id="21" value="TigerBeetle Cluster" style="text;html=1;strokeColor=none;fillColor=none;align=center;verticalAlign=middle;whiteSpace=wrap;rounded=0;opacity=60;fontSize=14;fontStyle=1" parent="1" vertex="1"><mxGeometry x="880" y="330" width="150" height="20" as="geometry"/></mxCell><mxCell id="27" value="&lt;font color=&quot;#000000&quot;&gt;Cache Cluster&lt;/font&gt;" style="labelPosition=center;verticalLabelPosition=middle;align=center;html=1;shape=mxgraph.basic.button;dx=10;fillColor=#f5f5f5;gradientColor=#b3b3b3;strokeColor=#666666;" parent="1" vertex="1"><mxGeometry x="861.25" y="360" width="113.75" height="80" as="geometry"/></mxCell><mxCell id="28" value="" style="endArrow=classic;html=1;exitX=1;exitY=0.75;exitDx=0;exitDy=0;" parent="1" source="qoHOIKUOJggppsxTAeiT-8" edge="1"><mxGeometry relative="1" as="geometry"><mxPoint x="565" y="500" as="sourcePoint"/><mxPoint x="810" y="405" as="targetPoint"/><Array as="points"/></mxGeometry></mxCell><mxCell id="29" value="Account/Transfer Data" style="edgeLabel;resizable=0;html=1;align=center;verticalAlign=middle;rotation=0;" parent="28" connectable="0" vertex="1"><mxGeometry relative="1" as="geometry"><mxPoint x="8" as="offset"/></mxGeometry></mxCell><mxCell id="43" value="&lt;div&gt;&lt;br&gt;&lt;/div&gt;&lt;ul&gt;&lt;li&gt;MySQL&lt;/li&gt;&lt;li&gt;Postgress&lt;/li&gt;&lt;/ul&gt;" style="text;strokeColor=none;fillColor=none;html=1;whiteSpace=wrap;verticalAlign=middle;overflow=hidden;" parent="1" vertex="1"><mxGeometry x="912.5" y="200" width="105" height="80" as="geometry"/></mxCell><mxCell id="53" value="" style="edgeStyle=orthogonalEdgeStyle;rounded=0;orthogonalLoop=1;jettySize=auto;html=1;entryX=0;entryY=0.5;entryDx=0;entryDy=0;endArrow=none;" parent="1" source="3" target="qoHOIKUOJggppsxTAeiT-15" edge="1"><mxGeometry relative="1" as="geometry"><mxPoint x="265" y="370" as="sourcePoint"/><mxPoint x="485" y="240" as="targetPoint"/></mxGeometry></mxCell><mxCell id="55" value="&lt;font color=&quot;#000000&quot;&gt;&lt;b&gt;Central Ledger&lt;br&gt;&lt;/b&gt;NodeJS&lt;br&gt;&lt;/font&gt;" style="rounded=0;whiteSpace=wrap;html=1;fillColor=#d5e8d4;strokeColor=#82b366;" parent="1" vertex="1"><mxGeometry x="520" y="360" width="120" height="60" as="geometry"/></mxCell><mxCell id="qoHOIKUOJggppsxTAeiT-68" value="&lt;font color=&quot;#000000&quot;&gt;WAF&lt;/font&gt;" style="rounded=0;whiteSpace=wrap;html=1;fillColor=#fff2cc;strokeColor=#d6b656;" parent="1" vertex="1"><mxGeometry x="440" y="345" width="45" height="70" as="geometry"/></mxCell><mxCell id="qoHOIKUOJggppsxTAeiT-34" value="&lt;font color=&quot;#000000&quot;&gt;DMZ&lt;/font&gt;" style="rounded=0;whiteSpace=wrap;html=1;fillColor=#fff2cc;strokeColor=#d6b656;" parent="1" vertex="1"><mxGeometry x="540" y="430" width="114" height="30" as="geometry"/></mxCell><mxCell id="68" value="&lt;font color=&quot;#000000&quot;&gt;Cache Cluster&lt;/font&gt;" style="labelPosition=center;verticalLabelPosition=middle;align=center;html=1;shape=mxgraph.basic.button;dx=10;fillColor=#f5f5f5;gradientColor=#b3b3b3;strokeColor=#666666;" parent="1" vertex="1"><mxGeometry x="870" y="370" width="113.75" height="80" as="geometry"/></mxCell><mxCell id="69" value="&lt;font color=&quot;#000000&quot;&gt;TigerBeetle&lt;br&gt;&lt;/font&gt;" style="labelPosition=center;verticalLabelPosition=middle;align=center;html=1;shape=mxgraph.basic.button;dx=10;fillColor=#f5f5f5;gradientColor=#b3b3b3;strokeColor=#666666;" parent="1" vertex="1"><mxGeometry x="880" y="380" width="113.75" height="80" as="geometry"/></mxCell><mxCell id="70" value="" style="rounded=0;whiteSpace=wrap;html=1;fillColor=#F19C99;strokeColor=#666666;fontColor=#333333;opacity=60;" parent="1" vertex="1"><mxGeometry x="810" y="490" width="275" height="160" as="geometry"/></mxCell><mxCell id="71" value="Redis Cluster" style="text;html=1;strokeColor=none;fillColor=none;align=center;verticalAlign=middle;whiteSpace=wrap;rounded=0;opacity=60;fontSize=14;fontStyle=1" parent="1" vertex="1"><mxGeometry x="865" y="520" width="130" height="20" as="geometry"/></mxCell><mxCell id="72" value="&lt;font color=&quot;#000000&quot;&gt;Redis&lt;br&gt;&lt;/font&gt;" style="whiteSpace=wrap;html=1;shape=mxgraph.basic.isocube;isoAngle=15;fillColor=#FC003A;strokeColor=#6F0000;fontColor=#ffffff;" parent="1" vertex="1"><mxGeometry x="895" y="560" width="75" height="70" as="geometry"/></mxCell><mxCell id="74" value="" style="endArrow=classic;html=1;exitX=0.75;exitY=1;exitDx=0;exitDy=0;entryX=0;entryY=0.5;entryDx=0;entryDy=0;" parent="1" source="55" target="70" edge="1"><mxGeometry relative="1" as="geometry"><mxPoint x="530" y="540" as="sourcePoint"/><mxPoint x="800" y="580" as="targetPoint"/><Array as="points"><mxPoint x="610" y="570"/><mxPoint x="690" y="570"/></Array></mxGeometry></mxCell><mxCell id="75" value="Participant Data" style="edgeLabel;resizable=0;html=1;align=center;verticalAlign=middle;rotation=0;" parent="74" connectable="0" vertex="1"><mxGeometry relative="1" as="geometry"><mxPoint x="8" as="offset"/></mxGeometry></mxCell></root></mxGraphModel></diagram></mxfile>